<?xml version="1.0" encoding="iso-8859-1"?>
<!-- Generator: Adobe Illustrator 19.0.0, SVG Export Plug-In . SVG Version: 6.00 Build 0)  -->
<svg version="1.1" id="Capa_1" xmlns="http://www.w3.org/2000/svg" xmlns:xlink="http://www.w3.org/1999/xlink" x="0px" y="0px"
	 viewBox="0 0 512 512" style="enable-background:new 0 0 512 512;" xml:space="preserve">
<g>
	<g>
		<path d="M402.048,203.136c-14.827-73.835-80.683-128.469-156.715-128.469c-88.235,0-160,71.765-160,160
			c0,3.605,0.149,7.296,0.469,11.2C37.653,250.987,0,291.84,0,341.333c0,52.928,43.072,96,96,96h298.667
			C459.371,437.333,512,384.683,512,320C512,258.261,464.085,207.531,402.048,203.136z M394.667,416H96
			c-41.173,0-74.667-33.493-74.667-74.667s33.493-74.667,73.984-74.688c3.563,0.448,8.107-0.747,10.475-3.499
			c2.027-2.325,2.944-5.419,2.496-8.491c-1.109-7.659-1.621-14.016-1.621-19.989C106.667,158.208,168.875,96,245.333,96
			c68.501,0,127.445,51.157,137.109,118.997c0.747,5.269,6.912,9.003,12.224,9.003c52.928,0,96,43.072,96,96
			C490.667,372.928,447.595,416,394.667,416z"/>
	</g>
</g>
<g>
</g>
<g>
</g>
<g>
</g>
<g>
</g>
<g>
</g>
<g>
</g>
<g>
</g>
<g>
</g>
<g>
</g>
<g>
</g>
<g>
</g>
<g>
</g>
<g>
</g>
<g>
</g>
<g>
</g>
</svg>
