<?xml version="1.0" encoding="iso-8859-1"?>
<!-- Generator: Adobe Illustrator 19.0.0, SVG Export Plug-In . SVG Version: 6.00 Build 0)  -->
<svg version="1.1" id="Layer_1" xmlns="http://www.w3.org/2000/svg" xmlns:xlink="http://www.w3.org/1999/xlink" x="0px" y="0px"
	 viewBox="0 0 510.273 510.273" style="enable-background:new 0 0 510.273 510.273;" xml:space="preserve">
<g>
	<g>
		<path d="M499.606,404.172H488.94v-32c0-5.888-4.779-10.667-10.667-10.667h-10.24c11.221-26.133,24.512-49.088,39.829-67.947
			c2.645-3.264,3.136-7.787,1.237-11.541c-1.899-3.733-5.931-6.485-10.027-5.824c-22.272,1.067-43.947,5.163-64.811,11.499
			c-10.261-132.416-118.4-239.083-252.416-245.525c-4.16-0.512-8.149,2.069-10.048,5.824c-1.899,3.755-1.408,8.277,1.259,11.541
			c27.627,34.069,47.936,78.677,59.499,128.747c-44.288-36.949-98.901-58.645-157.099-61.419c-4.011-0.64-8.107,2.069-10.005,5.824
			c-1.899,3.755-1.429,8.277,1.237,11.541c26.389,32.512,45.952,74.752,57.749,121.963c-35.093-19.051-73.771-30.144-113.259-32.021
			c-4.224-0.619-8.128,2.069-10.027,5.824c-1.899,3.755-1.429,8.277,1.237,11.541c23.509,28.971,41.856,66.965,54.101,109.973
			h-4.885c-5.888,0-10.667,4.779-10.667,10.667v32H30.273c-5.888,0-10.667,4.779-10.667,10.667v42.667
			c0,5.888,4.779,10.667,10.667,10.667h469.333c5.888,0,10.667-4.779,10.667-10.667v-42.667
			C510.273,408.95,505.494,404.172,499.606,404.172z M476.908,299.702c-12.181,18.219-22.955,38.912-32.171,61.803h-98.091
			c0.896-0.811,1.685-1.728,2.581-2.539c0.96-0.853,1.963-1.643,2.944-2.475c14.677-12.501,30.677-23.317,47.701-32.064
			c0.427-0.213,0.853-0.448,1.28-0.661c8.747-4.437,17.749-8.363,26.944-11.712C443.798,306.337,460.118,302.113,476.908,299.702z
			 M204.076,65.697c114.176,16.512,203.2,112.469,209.6,228.992c-1.216,0.469-2.325,1.131-3.541,1.643
			c-7.019,2.901-13.931,6.08-20.693,9.579c-1.963,1.024-3.883,2.069-5.824,3.136c-6.4,3.52-12.651,7.296-18.773,11.371
			c-2.091,1.387-4.181,2.752-6.229,4.203c-5.589,3.925-11.008,8.128-16.32,12.501c-2.325,1.899-4.672,3.755-6.933,5.739
			c-4.715,4.139-9.195,8.576-13.653,13.077c-1.899,1.92-3.989,3.605-5.824,5.589h-56.917c1.152-7.04,1.771-14.229,2.581-21.355
			c0.448-3.989,1.088-7.936,1.451-11.947c1.216-13.717,1.963-27.52,1.963-41.365c0-11.413-0.491-22.699-1.28-33.877
			c-0.192-2.709-0.555-5.333-0.789-8.021c-0.747-8.512-1.664-16.96-2.859-25.28c-0.149-1.003-0.192-2.027-0.341-3.029
			c-0.021-0.192-0.213-0.32-0.256-0.512C250.71,159.18,231.788,107.02,204.076,65.697z M97.686,150.39
			c53.739,7.701,103.168,33.045,141.376,72.747c1.493,10.411,2.624,20.949,3.392,31.595c0.043,0.491,0.021,1.003,0.064,1.515
			c0.683,10.155,1.088,20.373,1.088,30.592c0,1.451-0.171,2.88-0.171,4.352c-0.107,11.84-0.619,23.659-1.664,35.392
			c-0.427,4.715-1.216,9.344-1.771,14.016c-0.853,7.019-1.792,13.995-2.965,20.907h-78.571
			C156.801,281.164,135.062,206.049,97.686,150.39z M33.409,257.718c34.176,5.013,67.221,17.429,96.853,36.501
			c1.92,10.773,3.392,21.547,4.523,32.277c0.085,0.853,0.192,1.707,0.277,2.56c0.811,8.213,1.195,16.363,1.557,24.491
			c0.107,2.667,0.235,5.312,0.277,7.979H79.041C68.524,322.38,52.95,287.052,33.409,257.718z M488.94,446.838h-448v-21.333h10.667
			c5.888,0,10.667-4.779,10.667-10.667v-32h405.333v32c0,5.888,4.779,10.667,10.667,10.667h10.667V446.838z"/>
	</g>
</g>
<g>
</g>
<g>
</g>
<g>
</g>
<g>
</g>
<g>
</g>
<g>
</g>
<g>
</g>
<g>
</g>
<g>
</g>
<g>
</g>
<g>
</g>
<g>
</g>
<g>
</g>
<g>
</g>
<g>
</g>
</svg>
