<svg id="Layer_1" enable-background="new 0 0 511.867 511.867" height="512" viewBox="0 0 511.867 511.867" width="512" xmlns="http://www.w3.org/2000/svg"><g><path d="m120.871 163.426-11.294 9.396c-7.465 6.211 2.211 17.672 9.594 11.531l73.619-61.25c13.885-11.552 21.848-28.542 21.848-46.612v-37.976c16.322 2.882 29.293 15.031 33.326 30.995.916 3.841.367 8.218 1.793 11.875.861 2.247 2.76 3.962 5.11 4.569.009.002.017.007.026.009.124.032 12.599 3.367 26.665 14.616 18.779 15.019 31.429 36.355 37.595 63.417 6.876 30.179-1.575 64.358-1.66 64.695-1.48 5.83 4.637 11.122 10.218 8.741.781-.334 12.622-5.517 23.455-16.818.253 16.716 1.867 38.977 7.121 62.921 2.046 9.319 16.736 6.275 14.651-3.215-10.205-46.505-5.845-87.481-5.801-87.885.995-8.891-12.252-11.473-14.674-2.862-3.211 11.429-10.565 19.807-17.266 25.395 1.861-14.049 3.063-34.626-1.42-54.303-8.737-38.346-28.488-60.498-43.52-72.329-10.714-8.434-20.612-12.98-26.403-15.173-1.33-11.093-5.684-21.949-12.958-30.484 11.528-9.783 41.126-30.396 82.979-27.373 52.298 3.777 93.874 37.383 119.544 64.911 28.255 30.3 44.057 60.16 44.213 60.459 4.487 8.567 17.772 1.614 13.289-6.957-.669-1.279-16.723-31.684-46.261-63.44-39.506-42.478-84.358-66.66-129.704-69.935-49.593-3.577-83.539 21.699-95.611 32.476-9.424-6.464-20.562-9.958-32.206-9.958-4.143 0-7.5 3.358-7.5 7.5v9.497c-6.362.178-16.113 1.199-26.546 5.054-16.49 6.092-37.858 20.553-46.014 54.843-1.477 6.208-6.415 9.993-10.297 12.073-7.685 4.119-17.802 5.058-25.182 2.336-5.896-2.175-11.922 3.938-9.554 9.833.486 1.207 11.238 27.23 38.825 39.428zm2.996-38.377c9.323-4.997 15.646-12.747 17.806-21.824 10.131-42.599 44.127-48.009 57.966-48.402v21.667c0 13.601-5.992 26.388-16.441 35.081l-49.021 40.785c-.141-.05-.279-.105-.424-.148-14.554-4.273-24.394-13.75-30.374-21.585 7.087-.355 14.275-2.244 20.488-5.574z"/><path d="m294.045 333.692c-5.893-12.815-16.356-22.256-28.637-27.206l30.453-12.278c8.973-3.617 3.365-17.527-5.609-13.912l-63.803 25.724c-17.975 6.786-31.495 11.469-39.097 13.545-20.394 5.567-50.059 6.244-72.624-4.066.995-26.864-5.49-48.38-19.316-64-10.254-11.584-22.546-17.565-32.123-20.652l21.336-17.751c7.438-6.188-2.156-17.717-9.594-11.531l-52.909 44.021c-25.032 20.826-29.873 58.233-8.919 83.766 20.279 24.71 56.141 27.691 81.452 9.055l13.069-9.621c26.163 12.211 60.311 11.602 83.577 5.251 8.177-2.232 21.81-6.946 40.521-14.011 18.837-7.112 40.183 1.644 48.617 19.985l78.628 167.678c4.093 8.732 17.693 2.401 13.58-6.368zm-209.729-72.096c11.27 12.831 16.438 31.143 15.383 54.463l-15.337 11.246c-42.998 31.532-94.482-35.411-53.711-69.094l18.721-15.309c6.383.997 22.761 4.824 34.944 18.694z"/><path d="m31.026 285.67c.116 6.832 9.174 5.773 9.174 5.773 2.51.258 10.699 2.007 10.699 13.677 0 4.142 3.357 7.5 7.5 7.5s7.5-3.358 7.5-7.5c0-21.175-16.007-27.984-24.471-28.626 0 0-10.569-.657-10.402 9.176z"/><path d="m223.403 139.288c-16.932 0-30.707 13.497-30.707 30.087 0 9.386 15 9.813 15 0 0-8.319 7.046-15.087 15.707-15.087s15.707 6.768 15.707 15.087c0 9.386 15 9.813 15 0 0-16.59-13.775-30.087-30.707-30.087z"/><path d="m509.026 451.513c-53.788-44.021-64.424-115.988-64.523-116.704-.889-6.434-9.574-8.717-13.472-3.416-9.766 13.279-13.077 27.545-13.915 38.635-13.095-13.933-23.828-30.865-32.011-50.535-3.716-8.933-17.565-3.171-13.85 5.762 11.702 28.127 28.302 51.198 49.34 68.571 5.274 4.355 13.563-.558 12.109-7.353-.038-.179-2.688-13.118 1.655-28.244 7.368 26.519 25.141 72.134 65.166 104.892 7.428 6.079 17.018-5.457 9.501-11.608z"/><path d="m363.983 42.417c-21.111-7.318-42.214-8.413-57.902-3.004-9.145 3.154-4.255 17.335 4.891 14.181 24.715-8.523 71.752 5.128 91.41 33.21 5.452 7.789 17.856-.648 12.289-8.602-10.7-15.284-29.174-28.326-50.688-35.785z"/></g></svg>