<svg id="_x31__px" enable-background="new 0 0 24 24" height="512" viewBox="0 0 24 24" width="512" xmlns="http://www.w3.org/2000/svg"><g><path d="m17.5 24h-9c-.276 0-.5-.224-.5-.5v-3.325l-2.415.734c-.162.058-.366.091-.585.091-1.103 0-2-.897-2-2v-3h-2c-.551 0-1-.449-1-1 0-.19.053-.371.157-.536l2.34-3.71c.329-.521.503-1.127.503-1.754 0-2.404.937-4.664 2.637-6.363 1.827-1.828 4.304-2.779 6.892-2.626.275.016.486.252.47.528s-.251.485-.528.47c-.159-.009-.302-.009-.471-.009-2.137 0-4.145.833-5.656 2.344s-2.344 3.519-2.344 5.656c0 .817-.228 1.608-.658 2.288l-2.339 3.709 2.497.003c.276 0 .5.224.5.5v3.5c0 .551.449 1 1 1 .104 0 .196-.014.272-.041l3.082-.938c.151-.045.315-.017.443.077s.203.244.203.402v3.5h8v-4.53c0-.765.101-1.507.299-2.207.075-.267.354-.423.617-.345.266.075.42.352.345.617-.173.611-.261 1.262-.261 1.935v5.03c0 .276-.224.5-.5.5z"/></g><g><path d="m19.5 11h-5c-.827 0-1.5-.673-1.5-1.5v-5c0-.827.673-1.5 1.5-1.5h5c.827 0 1.5.673 1.5 1.5v5c0 .827-.673 1.5-1.5 1.5zm-5-7c-.276 0-.5.224-.5.5v5c0 .276.224.5.5.5h5c.276 0 .5-.224.5-.5v-5c0-.276-.224-.5-.5-.5z"/></g><g><path d="m23.5 6h-3c-.276 0-.5-.224-.5-.5s.224-.5.5-.5h3c.276 0 .5.224.5.5s-.224.5-.5.5z"/></g><g><path d="m23.5 9h-3c-.276 0-.5-.224-.5-.5s.224-.5.5-.5h3c.276 0 .5.224.5.5s-.224.5-.5.5z"/></g><g><path d="m13.5 6h-3c-.276 0-.5-.224-.5-.5s.224-.5.5-.5h3c.276 0 .5.224.5.5s-.224.5-.5.5z"/></g><g><path d="m13.5 9h-3c-.276 0-.5-.224-.5-.5s.224-.5.5-.5h3c.276 0 .5.224.5.5s-.224.5-.5.5z"/></g><g><path d="m18.5 14c-.276 0-.5-.224-.5-.5v-3c0-.276.224-.5.5-.5s.5.224.5.5v3c0 .276-.224.5-.5.5z"/></g><g><path d="m15.5 14c-.276 0-.5-.224-.5-.5v-3c0-.276.224-.5.5-.5s.5.224.5.5v3c0 .276-.224.5-.5.5z"/></g><g><path d="m18.5 4c-.276 0-.5-.224-.5-.5v-3c0-.276.224-.5.5-.5s.5.224.5.5v3c0 .276-.224.5-.5.5z"/></g><g><path d="m15.5 4c-.276 0-.5-.224-.5-.5v-3c0-.276.224-.5.5-.5s.5.224.5.5v3c0 .276-.224.5-.5.5z"/></g></svg>