<?xml version="1.0" encoding="iso-8859-1"?>
<!-- Generator: Adobe Illustrator 19.0.0, SVG Export Plug-In . SVG Version: 6.00 Build 0)  -->
<svg version="1.1" id="Layer_1" xmlns="http://www.w3.org/2000/svg" xmlns:xlink="http://www.w3.org/1999/xlink" x="0px" y="0px"
	 viewBox="0 0 512 512" style="enable-background:new 0 0 512 512;" xml:space="preserve">
<g>
	<g>
		<path d="M153.926,0c-41.115,0-79.77,16.011-108.842,45.084C16.011,74.156,0,112.811,0,153.926
			c0,28.798,7.865,56.383,22.562,80.321l56.45-1.819l2.395-74.306l74.308-2.397l2.395-74.304l74.312-2.401l1.823-56.458
			C210.31,7.865,182.724,0,153.926,0z"/>
	</g>
</g>
<g>
	<g>
		<path d="M493.228,402.442c-20.945-20.945-52.879-24.352-77.412-10.24L273.931,250.318c47.383-58.901,45.005-144.851-7.136-201.036
			l-2.006,62.104l-74.31,2.401l-2.395,74.307l-74.308,2.398l-2.394,74.306l-62.096,2c29.435,27.315,67.036,40.984,104.642,40.984
			c34.177,0,68.349-11.288,96.393-33.849l141.884,141.884c-14.112,24.533-10.707,56.466,10.24,77.412
			C414.958,505.742,431.398,512,447.836,512c16.44,0,32.878-6.258,45.393-18.773C518.257,468.198,518.257,427.472,493.228,402.442z
			 M469.615,469.615c-12.01,12.009-31.55,12.01-43.56,0c-12.009-12.01-12.009-31.551,0-43.56c6.005-6.005,13.893-9.007,21.78-9.007
			s15.775,3.002,21.78,9.007C481.625,438.064,481.625,457.605,469.615,469.615z"/>
	</g>
</g>
<g>
</g>
<g>
</g>
<g>
</g>
<g>
</g>
<g>
</g>
<g>
</g>
<g>
</g>
<g>
</g>
<g>
</g>
<g>
</g>
<g>
</g>
<g>
</g>
<g>
</g>
<g>
</g>
<g>
</g>
</svg>
