<?xml version="1.0" encoding="iso-8859-1"?>
<!-- Generator: Adobe Illustrator 19.0.0, SVG Export Plug-In . SVG Version: 6.00 Build 0)  -->
<svg version="1.1" id="Capa_1" xmlns="http://www.w3.org/2000/svg" xmlns:xlink="http://www.w3.org/1999/xlink" x="0px" y="0px"
	 viewBox="0 0 428 428" style="enable-background:new 0 0 428 428;" xml:space="preserve">
<g>
	<g>
		<path d="M8,181.2L8,181.2c-4.418,0-8,3.582-8,8v49.6c0,4.418,3.582,8,8,8s8-3.582,8-8v-49.6C16,184.782,12.418,181.2,8,181.2z"/>
	</g>
</g>
<g>
	<g>
		<path d="M39.68,140.8c-4.418,0-8,3.582-8,8v130.4c0,4.418,3.582,8,8,8s8-3.582,8-8V148.8C47.68,144.382,44.098,140.8,39.68,140.8z
			"/>
	</g>
</g>
<g>
	<g>
		<path d="M71.36,154.8c-4.418,0-8,3.582-8,8v102.4c0,4.418,3.582,8,8,8s8-3.582,8-8V162.8C79.36,158.382,75.778,154.8,71.36,154.8z
			"/>
	</g>
</g>
<g>
	<g>
		<path d="M103.04,181.2L103.04,181.2c-4.418,0-8,3.582-8,8v49.6c0,4.418,3.582,8,8,8s8-3.582,8-8v-49.6
			C111.04,184.782,107.458,181.2,103.04,181.2z"/>
	</g>
</g>
<g>
	<g>
		<path d="M134.8,111.52c-4.418,0-8,3.582-8,8v188.96c0,4.418,3.582,8,8,8s8-3.582,8-8V119.52
			C142.8,115.102,139.218,111.52,134.8,111.52z"/>
	</g>
</g>
<g>
	<g>
		<path d="M166.48,150.56c-4.418,0-8,3.582-8,8v110.88c0,4.418,3.582,8,8,8s8-3.582,8-8V158.56
			C174.48,154.142,170.898,150.56,166.48,150.56z"/>
	</g>
</g>
<g>
	<g>
		<path d="M198,163.92c-4.418,0-8,3.582-8,8v84.16c0,4.418,3.582,8,8,8s8-3.582,8-8v-84.16C206,167.502,202.418,163.92,198,163.92z"
			/>
	</g>
</g>
<g>
	<g>
		<path d="M230,181.2L230,181.2c-4.418,0-8,3.582-8,8v49.6c0,4.418,3.582,8,8,8s8-3.582,8-8v-49.6
			C238,184.782,234.418,181.2,230,181.2z"/>
	</g>
</g>
<g>
	<g>
		<path d="M261.52,163.92c-4.418,0-8,3.582-8,8v84.16c0,4.418,3.582,8,8,8s8-3.582,8-8v-84.16
			C269.52,167.502,265.938,163.92,261.52,163.92z"/>
	</g>
</g>
<g>
	<g>
		<path d="M293.2,150.56c-4.418,0-8,3.582-8,8v110.88c0,4.418,3.582,8,8,8s8-3.582,8-8V158.56
			C301.2,154.142,297.618,150.56,293.2,150.56z"/>
	</g>
</g>
<g>
	<g>
		<path d="M324.96,111.52c-4.418,0-8,3.582-8,8v188.96c0,4.418,3.582,8,8,8s8-3.582,8-8V119.52
			C332.96,115.102,329.378,111.52,324.96,111.52z"/>
	</g>
</g>
<g>
	<g>
		<path d="M356.64,154.8c-4.418,0-8,3.582-8,8v102.4c0,4.418,3.582,8,8,8s8-3.582,8-8V162.8
			C364.64,158.382,361.058,154.8,356.64,154.8z"/>
	</g>
</g>
<g>
	<g>
		<path d="M388.32,181.2L388.32,181.2c-4.418,0-8,3.582-8,8v49.6c0,4.418,3.582,8,8,8s8-3.582,8-8v-49.6
			C396.32,184.782,392.738,181.2,388.32,181.2z"/>
	</g>
</g>
<g>
	<g>
		<path d="M420,181.2L420,181.2c-4.418,0-8,3.582-8,8v49.6c0,4.418,3.582,8,8,8s8-3.582,8-8v-49.6
			C428,184.782,424.418,181.2,420,181.2z"/>
	</g>
</g>
<g>
</g>
<g>
</g>
<g>
</g>
<g>
</g>
<g>
</g>
<g>
</g>
<g>
</g>
<g>
</g>
<g>
</g>
<g>
</g>
<g>
</g>
<g>
</g>
<g>
</g>
<g>
</g>
<g>
</g>
</svg>
